<svg xmlns="http://www.w3.org/2000/svg" viewBox="0 0 96 96" role="img" aria-labelledby="title desc">
  <title id="title">Signal Mind</title>
  <desc id="desc">An abstract AI signal forming a mind and lightning mark</desc>
  <g fill="none" stroke="currentColor" stroke-linecap="round" stroke-linejoin="round">
    <path stroke-width="6" d="M26 28c8-10 23-14 36-8 12 6 18 19 14 32-3 10-12 18-24 21-10 3-20 0-27-7"/>
    <path stroke-width="6" d="M26 28v16M26 44l12 7M38 51l-8 15M54 24l-4 15 12 2-14 18 4-13-12-2 14-20Z"/>
    <circle cx="26" cy="28" r="3" fill="currentColor" stroke="none"/>
    <circle cx="54" cy="24" r="3" fill="currentColor" stroke="none"/>
    <circle cx="76" cy="52" r="3" fill="currentColor" stroke="none"/>
  </g>
</svg>
